<svg width="32" height="32" viewBox="0 0 32 32" fill="none" xmlns="http://www.w3.org/2000/svg">
  <circle cx="16" cy="16" r="14" fill="#E31937" stroke="#0066CC" stroke-width="2"/>
  <path d="M8 12C8 10 10 8 12 8C14 8 16 10 16 12" stroke="#0066CC" stroke-width="2" fill="none"/>
  <path d="M24 12C24 10 22 8 20 8C18 8 16 10 16 12" stroke="#0066CC" stroke-width="2" fill="none"/>
  <path d="M12 20C12 18 14 16 16 16C18 16 20 18 20 20" stroke="#0066CC" stroke-width="2" fill="none"/>
  <circle cx="16" cy="22" r="2" fill="#0066CC"/>
  <path d="M6 6L10 10M26 6L22 10M6 26L10 22M26 26L22 22" stroke="#0066CC" stroke-width="1.5"/>
</svg>
